# xmcd CD database file
#
# Track frame offsets:
#	150
#	21365
#	46870
#	72305
#	100712
#	129962
#	155682
#	178150
#	195085
#	211370
#	232170
#
# Disc length: 3331 seconds
#
# Revision: 2
# Processed by: cddbd v1.4b41PL1 Copyright (c) Steve Scherf et al.
# Submitted via: Feurio! 1.50.2ß - http://www.feurio.com
#
DISCID=920d010b
DTITLE=Amao - Keep Cool
DYEAR=1900
DGENRE=
TTITLE0=Movin
TTITLE1=Cruisin
TTITLE2=Save The Trees
TTITLE3=Candida Tango
TTITLE4=36 Degrees
TTITLE5=Birthday
TTITLE6=Lazy Sunday
TTITLE7=Cruisin (Radio Cut)
TTITLE8=Keep Cool
TTITLE9=In The Jungle (808 Mix)
TTITLE10=Come On Baby
EXTD=
EXTT0=
EXTT1=
EXTT2=
EXTT3=
EXTT4=
EXTT5=
EXTT6=
EXTT7=
EXTT8=
EXTT9=
EXTT10=
PLAYORDER=
